<?xml version="1.0" encoding="utf-8"?>
<!-- Generator: Adobe Illustrator 17.1.0, SVG Export Plug-In . SVG Version: 6.00 Build 0)  -->
<!DOCTYPE svg PUBLIC "-//W3C//DTD SVG 1.1//EN" "http://www.w3.org/Graphics/SVG/1.1/DTD/svg11.dtd">
<svg version="1.1" id="Layer_1" xmlns="http://www.w3.org/2000/svg" xmlns:xlink="http://www.w3.org/1999/xlink" x="0px" y="0px"
	 viewBox="0 0 34 34" enable-background="new 0 0 34 34" xml:space="preserve">
<path fill="#F4F4F5" d="M17,34c9.4,0,17-7.6,17-17c0-9.4-7.6-17-17-17C7.6,0,0,7.6,0,17C0,26.4,7.6,34,17,34"/>
<path fill="#E55499" d="M14.2,24.6c-2,0-3.5-1.3-3.5-2.8c0-1.5,1.8-2.8,3.8-2.7c0.5,0,0.9,0.1,1.3,0.2c1.1,0.8,1.9,1.2,2.1,2.1
	c0,0.2,0.1,0.4,0.1,0.5C18,23.4,17,24.6,14.2,24.6 M14.7,15.6c-1.4,0-2.6-1.5-2.9-3.3c-0.2-1.8,0.7-3.1,2-3.1c1.4,0,2.6,1.5,2.9,3.3
	C17,14.2,16.1,15.7,14.7,15.6 M17.5,18.2c-0.5-0.3-1.4-1.2-1.4-1.6c0-0.6,0.2-0.8,1-1.5c0.9-0.7,1.5-1.6,1.5-2.8
	c0-1.3-0.6-2.6-1.7-3h1.7l1.2-0.9h-5.3c-2.4,0-4.6,1.8-4.6,3.9c0,2.1,1.6,3.8,4,3.8c0.2,0,0.3,0,0.5,0c-0.2,0.3-0.3,0.6-0.3,1
	c0,0.6,0.3,1.1,0.7,1.5c-0.3,0-0.6,0-0.9,0c-2.9,0-5.2,1.9-5.2,3.8c0,1.9,2.5,3.1,5.4,3.1c3.3,0,5.2-1.9,5.2-3.8
	C19.4,20.1,18.9,19.2,17.5,18.2 M25.2,15.8h-2.1v-2.1h-1.7v2.1h-2.1v1.7h2.1v2.1h1.7v-2.1h2.1V15.8z"/>
</svg>
