<?xml version="1.0" encoding="utf-8"?>
<!-- Generator: Adobe Illustrator 17.1.0, SVG Export Plug-In . SVG Version: 6.00 Build 0)  -->
<!DOCTYPE svg PUBLIC "-//W3C//DTD SVG 1.1//EN" "http://www.w3.org/Graphics/SVG/1.1/DTD/svg11.dtd">
<svg version="1.1" id="Layer_1" xmlns="http://www.w3.org/2000/svg" xmlns:xlink="http://www.w3.org/1999/xlink" x="0px" y="0px"
	 viewBox="0 0 42 42" enable-background="new 0 0 42 42" xml:space="preserve">
<circle fill="#FFFFFF" cx="21" cy="21" r="21"/>
<g>
	<defs>
		<circle id="SVGID_1_" cx="21" cy="21" r="21"/>
	</defs>
	<clipPath id="SVGID_2_">
		<use xlink:href="#SVGID_1_"  overflow="visible"/>
	</clipPath>
	<g clip-path="url(#SVGID_2_)">
		<g>
			<g>
				<path fill="#00BFF3" d="M26,40.1C26,40.1,26,40.2,26,40.1C26,40.1,26,40.1,26,40.1"/>
				<path fill="#00BFF3" d="M17.6,43.5C17.6,43.5,17.6,43.5,17.6,43.5C17.6,43.5,17.6,43.5,17.6,43.5C17.6,43.5,17.6,43.5,17.6,43.5
					"/>
				<path fill="#00BFF3" d="M17.8,43.1c-0.1,0.1-0.1,0.2-0.2,0.3C17.7,43.4,17.7,43.3,17.8,43.1L17.8,43.1z"/>
				<path fill="#00BFF3" d="M18.3,43.3C18.3,43.4,18.3,43.4,18.3,43.3c-0.1,0-0.1,0-0.2,0C18.2,43.3,18.2,43.3,18.3,43.3"/>
				<path fill="#00BFF3" d="M18.8,44.7c0,0-0.1,0-0.2,0c0,0,0-0.1,0-0.1C18.7,44.6,18.7,44.6,18.8,44.7"/>
				<path fill="#00BFF3" d="M19.1,45.9c-0.7,0.3-1.4,0.5-1.7,0.6c-0.1-0.1-0.2-0.3-0.3-0.4c-0.3-0.3-0.8-0.7-1.3-1.1
					c0.3-0.1,0.6-0.2,0.9-0.3c0,0,0,0,0.1,0c0,0,0.1,0,0.1-0.1c0.1,0,0.1-0.1,0.2-0.1c0,0,0.1,0,0.1-0.1c0.1-0.1,0.2-0.2,0.3-0.3
					c0,0,0.1-0.1,0.1-0.1c0,0,0-0.1,0.1-0.1c0.1-0.2,0.2-0.3,0.2-0.5c0,0.1,0.1,0.1,0.1,0.1c0.4,0.1,0.2,0.4,0.3,0.7
					c0,0.2,0.4,0.3,0.6,0.3c0,0.1,0,0.1-0.1,0.2c0,0.1,0,0.2,0,0.2c0,0.2,0.1,0.3,0.2,0.5C18.8,45.7,18.8,45.8,19.1,45.9
					C19,45.9,19,45.9,19.1,45.9"/>
				<path fill="#00BFF3" d="M20.4,44.2l-0.3,0.7l-0.4,0.8c-0.1-0.1-0.2-0.1-0.3-0.2c-0.1-0.1-0.1-0.1-0.2-0.2
					c-0.1-0.1-0.1-0.3-0.1-0.4c0,0,0-0.1,0-0.1c0,0,0-0.1,0-0.1c0-0.1,0-0.1,0.1-0.2c0-0.1-0.1-0.1-0.1-0.1
					c-0.4-0.1-0.4-0.4-0.5-0.7c0-0.2-0.2-0.2-0.3-0.3c0-0.1,0.1-0.2,0.1-0.3l1.5,0.5c0.1,0.2,0.2,0.4,0.3,0.6c0,0,0,0,0,0
					C20.3,44.1,20.4,44.1,20.4,44.2"/>
				<path fill="#00BFF3" d="M17.6,43.5C17.6,43.5,17.6,43.5,17.6,43.5C17.6,43.5,17.6,43.5,17.6,43.5C17.6,43.5,17.6,43.5,17.6,43.5
					 M17.6,43.5C17.6,43.5,17.6,43.5,17.6,43.5C17.6,43.5,17.6,43.5,17.6,43.5C17.6,43.5,17.6,43.5,17.6,43.5"/>
				<path fill="#00BFF3" d="M14.2,45.2L14.2,45.2L14.2,45.2C14.3,45.2,14.3,45.2,14.2,45.2"/>
				<path fill="#00BFF3" d="M17.6,43.5C17.6,43.5,17.6,43.5,17.6,43.5C17.6,43.5,17.6,43.5,17.6,43.5C17.6,43.5,17.6,43.5,17.6,43.5
					"/>
				<path fill="#00BFF3" d="M18.3,43.3C18.3,43.4,18.3,43.4,18.3,43.3c-0.1,0-0.1,0-0.2,0C18.2,43.3,18.2,43.3,18.3,43.3"/>
				<path fill="#00BFF3" d="M18.8,44.7c0,0-0.1,0-0.2,0c0,0,0-0.1,0-0.1C18.7,44.6,18.7,44.6,18.8,44.7"/>
				<path fill="#00BFF3" d="M20,46.1c-0.1,0-0.2,0.1-0.3,0.1C19.9,46.1,20,46.1,20,46.1"/>
				<path fill="#00BFF3" d="M20.1,45.9c0,0,0,0.1-0.1,0.1L20.1,45.9z"/>
				<path fill="#00BFF3" d="M6.8,49.9c-0.5,0.2-1,0.4-1.1,0.4c-0.2,0-0.3,0-0.5,0c-0.7,0-1.3-0.3-1.5-0.8c-0.3-0.5-0.2-1.3,0.2-1.9
					c0.1,0,0.3-0.1,0.4-0.2c0.4,0.9,1.4,1.9,2.1,2.3C6.5,49.8,6.6,49.8,6.8,49.9"/>
				<path fill="#00BFF3" d="M21.6,18.8c2.3,1,3.1,5.5,1.4,7.8c-0.4,0.5-1.1,1.1-1.7,1.3c-2.1,0.6-3.6-0.9-4.1-2.6
					c0.1-0.1,2.9-1.4,2.9-1.4L17,22.4C17.2,20,19.3,17.8,21.6,18.8"/>
				<path fill="#00BFF3" d="M32.2,55.4c-1.1-1.2-2.8-2.5-4.7-2.5c-1.2,0-2.8,0.6-3.7,1.1c-1.2,0.5-1.9,1.3-2.7,1.8
					c1.5-2,3.6-3.5,7.2-3.4c0-0.6-0.2-0.8-0.2-1.5c1.8-1.1,4.4-1.1,5.7-2.6c1.5-1.7,1.2-4.8,0.1-6.6c-0.7-1-1.1-1.6-1.9-2.2
					c0.2-0.1,0.3-0.2,0.3-0.3l-1.3-2.3c-0.4-0.1-0.7,0-0.8,0.1c-0.8-1.6-1.8-3-2.6-4.7c0.6-1.1,1.4-2.1,1.9-3.3
					c2.3-0.9,3.1-5.1,2-7.8c0.3-0.6,0.2-2,0.3-2.7c0.2-2,0.3-3.1,0-4.4c-0.2-1-0.5-1.6-1-2.3c-1.2-1.9-2.2-2.8-4.5-3.9
					c-1.5-0.8-3.1-1.4-4.7-1.6c-3.5-0.3-6.7,0-9.1,2c-0.5,0.8-1.3,1.8-1,3.2c0.9,0.9,3.5,2.2,3.3,2.2c-0.7-0.4,0,0-2.5-1.2
					c-1.5-0.7-2.7-1.6-3.9-0.1c-0.8,1-0.7,1.7-0.7,3.4c0.1,1.9,0,3,0,6c0,0.7,0.2,2.6,0.2,2.8c0,0,0,0,0,0c0,0.3,0.1,0.6,0.2,0.9
					c0,0.9,0.9,1.8,1.3,2.4c0.5,0.6,1.2,1.4,1.7,2h0.1c0,0.1,0,0.1,0,0.2C10,31.6,8.2,33.7,7,36.4c-0.5,1.2-1.1,3.2-1.4,4
					c-0.1,0.4-1.1,3.3-1.3,4.2c-0.1,0.7-0.1,1.3,0,1.8c0,0,0,0-0.1,0c-0.1,0-0.5,0.2-0.8,0.3l-0.1,0.1L3.2,47c-0.7,1-0.8,2.1-0.3,3
					c0.4,0.8,1.3,1.3,2.4,1.3c0.2,0,0.4,0,0.7-0.1c0.1,0,0.1,0,2.2-0.9c0.2,0.1,0.5,0.1,0.7,0.3c-0.2,1.1-0.5,2.1-0.8,3.1
					c0.4,0.1,0.7-0.4,1.1-0.6c1.2-0.6,3-1.1,4.7-1c1.5,0.1,2.3,0.9,3.3,1.5c0.2,0.1,0.5,0.4,0.7,0.7c0.2,0.3,0.3,0.6,0.6,0.8
					c0.2-1.1,0.2-2.4,0.5-3.4c0.1,1.2,0.1,2.9,0.1,4.2c0,0.5,0,0.9-0.1,1.3c-0.5-1.3-1.3-2.4-2.3-3.2c-0.3-0.3-0.6-0.4-0.9-0.6
					c-1.6-0.8-4.3-0.6-5.8,0.1c-2.2,1-3.2,2.4-4.1,4.8c-0.5,1.3-0.8,2.5-0.5,4.1c0.7,0.8,2,0.5,3.2,0.5h7.5c1.1,0,3,0.3,3.7-0.1
					c0.5-0.2,0.4-0.8,0.8-0.9c0.5-0.2,1.5,0,2.3,0c2.4,0,5.1,0,6.9-0.1c1.8-0.1,4,0.3,4.3-1.1c0.1-1.4-0.1-2.3-0.4-3.2
					C33.2,56.6,32.8,56,32.2,55.4 M10.9,54.3c0.9-0.5,3.2-0.4,4.1-0.1c0.1,0.5,0.3,0.8,0.4,1.4c-1.3,0-3.2-0.2-4.7,0
					C10.6,55.3,10.8,54.8,10.9,54.3 M10.2,54.7c0,0.3-0.1,1.3-0.1,1.3s2.6-0.2,3.3-0.1c0.3,0,1.2,0,1.3,0c0.2,0,0.9,0.1,1.4,0
					c0-0.4-0.1-0.9-0.3-1.6c0.9,0.3,2.4,2.5,2.7,4.8c-0.4,0-1.6-0.1-1.6-0.1s-1.5-2-2.9-2.2l-0.7-0.1c-2,0-2.8,0.7-3.3,1.1
					c-0.3,0.2-0.6,0.6-0.9,1.1l-2.2,0C7.1,57.6,7.9,55.6,10.2,54.7 M18.8,61.4c-3,0.1-6.3,0.1-9.4,0.1c-1,0-2.1,0.1-3-0.1
					c-0.2-0.5,0.1-1.1,0.2-1.5c0.8-0.1,2.1,0.2,2.9-0.1c0.6-0.2,1-1.2,1.6-1.6c0.5-0.3,1.2-0.5,1.7-0.5c1.6-0.1,2.9,1.1,3.8,2.2
					c0.7,0,1.5-0.1,2,0.1C18.9,60.2,19,60.9,18.8,61.4 M29.7,54.5c-1,0.2-2,0.4-2.6,1c-0.6-0.2-1.1-0.4-1.4-0.9
					C26.3,53.4,29,53.3,29.7,54.5 M24.8,54.7c0.1,0.5,2.3,1.5,2.3,1.5c1.5-1,3.3-1.3,3.3-1.3c0.1-0.1-0.2-0.3-0.2-0.4
					c0.3,0.3,1,0.6,1.9,2.1c-0.7,0.2-2.4,2.2-2.4,2.2c-0.5-0.1-8.1,0.1-8.8,0l-0.5-0.1c0.1-1.3,0.6-1.9,0.6-1.9
					C22.5,55.4,24.8,54.7,24.8,54.7 M22,44.7c-0.3,0-0.6,0-0.9,0.1l0.8-1.7L18.4,42l-1,0.3c-0.1-0.3-0.3-0.7-0.7-0.9
					c-1.2-0.9-3.6-0.7-4.3-1.9V39c1.9-0.8,2.5-3,2.5-5c1.5,1,3.8,1.8,6.5,1.5c0.7-0.1,1.3-0.2,1.9-0.4c0.1,1.3,0.4,3,1.3,3.8
					c0.1,0.1,0.2,0.1,0.3,0.1c0,0.5,0,1,0,1.5C24,41.9,21.6,42.2,22,44.7 M17.8,43.1c-0.1,0.1-0.1,0.2-0.2,0.3c0,0,0,0,0,0
					c0,0,0,0,0,0c0,0,0,0,0,0C17.7,43.4,17.7,43.3,17.8,43.1L17.8,43.1z M16.9,29.5c1.4-0.7,2.4,0.3,3.6,0.9
					c1.7,0.8,3.6,1.2,6.3,1.1c-0.4,0.8-0.4,0.7-0.9,1.1c-0.9,0.7-2.4,1.9-4.7,1.6c-1.4-0.2-3.6-1.5-4.4-2.4c-0.2-0.2-0.7-1-0.4-1.6
					c1.2,0.6,2,1.2,3.2,1.6C18.6,30.9,17.6,30.4,16.9,29.5 M33,41.9c0.8,1.3,1.3,3.2,0.5,4.8c-0.1,0.1-0.2,0.2-0.2,0.3
					c-0.3,0.6-0.7,1-1.7,1.2c0-0.7,0.5-1.5,0.4-2.5c-0.4,0.4-0.5,1-0.8,1.5c-0.3,0.5-0.6,0.9-0.9,1.4c-0.5,0.4-1,0.9-1.6,0.8
					c0.2-1,0.7-2.3,0.4-3.5c-0.1,0.3-0.3,0.7-0.4,1.1c-0.3,1.1-0.9,2-1.4,2.9c-0.4,0.4-0.9,0.8-1.6,0.8c-2,0-0.8-2.6-0.4-3.6
					c0.4-0.9,0.8-1.8,0.9-2.6c-0.4,0.3-0.7,0.7-1.1,0.9c-1.5,0.1-2.7-0.5-2.5-1.6c0.1-1,1.8-1.1,2.2-1.9c0.3-0.7,0.6-1.2,1-1.7
					c0,0,0,0,0.1-0.1c0.6-1.2,3.6-1.2,4-0.7C31.2,39.9,32.4,40.9,33,41.9 M28.1,35.6c0.3,0.5,0.6,1.1,0.9,1.6c-1,0-2.6,0.3-3.4,1.1
					c-0.2-0.5-0.3-1.1-0.6-1.6c0,0.3-0.1,0.7-0.1,1c-0.5-0.8-0.6-2.1-0.6-3c0.9-0.4,1.7-0.9,2.6-1.5C27.4,33.9,27.7,34.8,28.1,35.6
					 M14.4,22.1c0.1-1.5,0.3-1.6,1-2.2c0,0,0.1-1.8,0.2-2.3c0.1-0.6,0.4-1.9,0.7-2.4c0.1-0.2,0.1-0.2,0.5-0.4c0.4-0.3,1-0.6,1.5-0.8
					c0.9-0.4,2.1-0.7,3.1-0.8c2.8-0.2,5,0.9,6.4,2.1c0,0,0.1,0.1,0.1,0.1c0.8,0.9,1.3,2,1.7,3.1c0.1,0.3,0.1,0.7,0.1,1
					c-2.1,0.3-2.8,1.9-3.2,3.8c0,0,0.9,0.5,1.4,0.8c0.5,0.2,1.4,0.8,1.4,0.8s-0.5,0.3-0.7,0.4c-0.6,0.3-1.9,1.2-1.9,1.2
					c0.3,1.1,1,1.9,1.8,2.5c-0.2,0.8-0.7,1.7-1.3,1.9c-3,0.8-5.9-0.6-7.8-1.6c-0.7-0.3-1.3-0.8-2.3-0.6c-1.1,0.2-1.7,1.5-1.2,2.6
					c0.5,1.2,1.5,2,2.6,2.6c0.5,0.2,1.4,0.7,1.4,0.7c-1.1,0.1-2.2-0.1-3-0.5c-2.4-1.1-4.1-3.2-4.6-6.3c0.5-0.4,0.6-0.3,0.9-0.6
					c0.7-0.5,1.1-1.6,1.1-2.6C14.3,23.2,14.3,23.4,14.4,22.1 M12.3,26.7c0.5-0.7,1-1.7,0.8-2.9c-0.1-0.8-0.4-1.2-0.9-1.6
					c-0.1-0.1-0.4-0.3-0.4-0.3C13.9,22.1,14.2,26.1,12.3,26.7 M10.9,26.7c-2.4,0.1-2.8-4.5-0.2-4.7c1.4-0.1,2.2,1.2,2.1,2.6
					C12.7,25.7,11.8,26.7,10.9,26.7 M5.7,50.3c-0.2,0-0.3,0-0.5,0c-0.7,0-1.3-0.3-1.5-0.8c-0.3-0.5-0.2-1.3,0.2-1.9
					c0.1,0,0.3-0.1,0.4-0.2c0.4,0.9,1.4,1.9,2.1,2.3c0.1,0,0.1,0.1,0.4,0.1C6.3,50.1,5.9,50.3,5.7,50.3 M16.3,49.3
					c-2.9,0.1-4.1-1.5-5.5-3c0.2,1,0.8,1.7,1.4,2.4c0.2,0.2,0.4,0.3,0.5,0.7c-2.3,0-3.5-1.2-4.7-2.3c0,0.9,1,1.4,1.5,2.1
					c-2.7,0.1-4.1-1.6-4.3-3.5c0-1,0.4-2,0.9-3.3l1.1-2.9c0.8-2.7,1.5-4.1,2.7-5.8c0.6-0.9,1.2-1.9,2-2.6c0,0,0.4,0.4,0.5,0.5
					c0.7,0.8,1,1.2,1.5,1.7c0,1.6-0.1,3.8-1.6,4.7c0-0.6,0.1-1.2,0.2-1.8c-0.5,0.3-0.6,0.6-0.8,1.1c-0.2,0.5-0.5,1.3-0.5,1.6
					c0,0.1,0,0.2,0,0.3c0.1,0.3,0.1,0.5,0.2,0.8c0.9,0.4,1.8,1.2,2.7,1.5c0.7,0.2,1.7,0,2.1,0.5c0.3,0.3,0.3,1.2,0.1,1.5
					c-0.5,0.8-2.3,1.1-3.2,0.5c0.2,0.4,0.6,0.8,1.1,1.3c0,0,0.1,0.1,0.1,0.1c0.3,0.2,0.6,0.5,0.8,0.7C16.2,46.8,18.1,48.3,16.3,49.3
					 M17.4,46.6c-0.1-0.1-0.2-0.3-0.3-0.4c-0.3-0.3-0.8-0.7-1.3-1.1c0.3-0.1,0.6-0.2,0.9-0.3c0,0,0,0,0.1,0c0,0,0.1,0,0.1-0.1
					c0.1,0,0.1-0.1,0.2-0.1c0,0,0.1,0,0.1-0.1c0.1-0.1,0.2-0.2,0.3-0.3c0,0,0-0.1,0.1-0.1c0,0,0-0.1,0.1-0.1
					c0.1-0.2,0.2-0.3,0.2-0.5c0,0.1,0.1,0.1,0.1,0.1c0.4,0.1,0.2,0.4,0.3,0.7c0,0.2,0.4,0.3,0.6,0.3c0,0,0-0.1,0-0.1
					c0,0,0.1,0.1,0.1,0.1c0,0-0.1,0-0.2,0c0,0.1,0,0.1-0.1,0.2c0,0.1,0,0.2,0,0.2c0,0.2,0.1,0.3,0.2,0.5c0.1,0.2,0.1,0.2,0.3,0.4
					c0,0,0,0,0.1,0C18.4,46.2,17.7,46.5,17.4,46.6 M19.4,45.4c-0.1-0.1-0.1-0.1-0.2-0.2c-0.1-0.1-0.1-0.3-0.1-0.4c0,0,0-0.1,0-0.1
					c0,0,0-0.1,0-0.1c0-0.1,0-0.1,0.1-0.2c0-0.1-0.1-0.1-0.1-0.1c-0.4-0.1-0.4-0.4-0.5-0.7c0-0.2-0.2-0.2-0.3-0.3c0,0,0,0.1,0,0.1
					c0,0-0.1-0.1-0.1-0.1c0,0,0.1,0,0.2,0c0-0.1,0.1-0.2,0.1-0.3l1.5,0.5c0.1,0.2,0.2,0.4,0.3,0.6c0,0,0,0,0,0c0,0,0.1,0.1,0.1,0.1
					l-0.3,0.7l-0.4,0.8C19.6,45.6,19.5,45.5,19.4,45.4 M19.8,46.2c0.1-0.1,0.2-0.1,0.3-0.1C20,46.1,19.9,46.1,19.8,46.2 M20.1,46
					l0.1-0.1C20.1,46,20.1,46,20.1,46 M32.7,60c-0.3,0.4-1.9,0.4-2.9,0.4c-2.4,0-4.3,0-6.6,0c-1.1,0-2.1,0-3-0.2
					c0-0.3-0.1-0.5-0.1-0.8c3.1-0.2,6.6,0,9.9-0.1c0.6-0.6,1.2-1.3,1.9-1.7c0.1-0.1,0.1-0.2,0.4-0.2C32.8,57.7,33.1,59.6,32.7,60"/>
				<path fill="#00BFF3" d="M19.8,46.2c0.1,0,0.2-0.1,0.3-0.1C20,46.1,19.9,46.1,19.8,46.2 M20.1,46c0,0,0.1-0.1,0.1-0.1L20.1,46z"
					/>
			</g>
		</g>
	</g>
</g>
</svg>
