<?xml version="1.0" encoding="utf-8"?>
<!-- Generator: Adobe Illustrator 17.1.0, SVG Export Plug-In . SVG Version: 6.00 Build 0)  -->
<!DOCTYPE svg PUBLIC "-//W3C//DTD SVG 1.1//EN" "http://www.w3.org/Graphics/SVG/1.1/DTD/svg11.dtd">
<svg version="1.1" id="Layer_1" xmlns="http://www.w3.org/2000/svg" xmlns:xlink="http://www.w3.org/1999/xlink" x="0px" y="0px"
	 viewBox="0 0 134.2 236.7" enable-background="new 0 0 134.2 236.7" xml:space="preserve">
<g>
	<g>
		<g>
			<path fill="none" d="M97.2,141.4c-0.1,0.1-0.1,0.2-0.2,0.2C97.1,141.5,97.1,141.5,97.2,141.4"/>
			<path fill="none" d="M62.5,155.4c0,0.1,0,0.1-0.1,0.2C62.4,155.6,62.4,155.5,62.5,155.4C62.4,155.5,62.4,155.4,62.5,155.4"/>
			<path fill="#E55499" d="M63.1,154c-0.2,0.5-0.5,0.9-0.6,1.4c0.1-0.5,0.2-0.9,0.3-1.3L63.1,154z"/>
			<path fill="#E55499" d="M65.1,154.8c-0.1,0.1-0.1,0.2-0.1,0.3c-0.2-0.2-0.3-0.3-0.5-0.5C64.6,154.7,64.8,154.8,65.1,154.8
				L65.1,154.8z"/>
			<path fill="#E55499" d="M67.1,160.4c-0.2,0-0.4-0.1-0.6-0.1c0.1-0.1,0.1-0.3,0.2-0.4C66.8,160.1,66.9,160.2,67.1,160.4
				L67.1,160.4z"/>
			<path fill="none" d="M62.4,155.6C62.4,155.6,62.4,155.6,62.4,155.6C62.4,155.5,62.4,155.5,62.4,155.6c0-0.1,0-0.1,0-0.1
				 M62.4,155.6C62.4,155.6,62.4,155.6,62.4,155.6C62.4,155.5,62.4,155.5,62.4,155.6c0-0.1,0-0.1,0-0.1"/>
			<path fill="none" d="M48.2,162.5L48.2,162.5l0.4,0.3C48.5,162.7,48.4,162.6,48.2,162.5"/>
			<path fill="none" d="M62.5,155.4c0,0.1,0,0.1-0.1,0.2C62.4,155.6,62.4,155.5,62.5,155.4C62.4,155.5,62.4,155.4,62.5,155.4"/>
			<path fill="#E55499" d="M65.1,154.8c-0.1,0.1-0.1,0.2-0.1,0.3c-0.2-0.2-0.3-0.3-0.5-0.5C64.6,154.7,64.8,154.8,65.1,154.8
				L65.1,154.8z"/>
			<path fill="#E55499" d="M67.1,160.4c-0.2,0-0.4-0.1-0.6-0.1c0.1-0.1,0.1-0.3,0.2-0.4C66.8,160.1,66.9,160.2,67.1,160.4
				L67.1,160.4z"/>
			<path fill="#E55499" d="M72.4,166.2c-0.3,0.2-0.8,0.4-1.2,0.5C71.9,166.4,72.3,166.2,72.4,166.2L72.4,166.2z"/>
			<path fill="#E55499" d="M72.7,165.6c0.1,0.2,0,0.3-0.2,0.5L72.7,165.6z"/>
			<path fill="#E55499" d="M79.1,52.9c9.4,4.1,12.9,22.7,5.6,32.3c-1.6,2.1-4.6,4.7-6.9,5.3c-8.9,2.6-14.9-3.7-17.2-11
				c0.5-0.4,12.2-5.6,12.2-5.6l-13.2-6.3C60.4,57.5,69.3,48.7,79.1,52.9L79.1,52.9z"/>
			<path fill="#E55499" d="M123,204.9c-4.5-4.9-11.8-10.4-19.4-10.3c-4.9,0-11.6,2.6-15.4,4.4c-4.8,2.3-7.7,5.4-11.3,7.5
				c6.2-8.5,15-14.5,30.1-14.1c0.1-2.5-0.7-3.2-0.9-6.3c7.5-4.8,18.3-4.8,23.8-11c6.4-7.2,5-20.1,0.3-27.3c-2.7-4.1-4.7-6.5-7.9-9.2
				c0.7-0.2,1.2-0.7,1.4-1.4l-5.4-9.7c-1.6-0.3-2.7,0-3.5,0.5c-3.5-6.5-7.5-12.6-10.6-19.5c2.6-4.6,5.8-8.6,7.8-13.8
				c9.5-3.6,12.7-21.4,8.4-32.4c1.1-2.7,0.9-8.2,1.2-11.2c0.7-8.2,1.3-13.1,0-18.2c-1-4-2.1-6.5-4-9.6c-5-8-9.4-11.8-18.6-16.4
				c-6.3-3.1-12.9-5.9-19.5-6.5c-14.7-1.4-28-0.1-37.7,8.4c-2.2,3.4-5.4,7.3-4,13.3c3.8,3.9,14.4,9.1,13.9,9.3c-3-1.7,0,0-10.2-5
				c-6.2-3-11.4-6.6-16.1-0.6c-3.3,4.3-3.1,7.2-2.8,14.2c0.4,7.9-0.1,12.5,0,25.1c0,2.7,0.8,10.6,0.9,11.6c0,0,0,0.1,0,0.1
				c0.1,1.4,0.3,2.6,0.7,3.8c0.2,3.9,3.6,7.3,5.6,9.9c2,2.6,5,5.7,6.9,8.4h0.3c0.1,0.2,0.1,0.5,0.2,0.7c-6.3,6.5-13.9,15-18.8,26.3
				c-2.2,5.1-4.4,13.4-6,16.6c-0.4,1.6-4.6,13.5-5.3,17.6c-0.5,2.8-0.5,5.3-0.1,7.7c-0.1,0-0.1,0.1-0.2,0.1
				c-0.3,0.2-1.9,0.8-3.2,1.3l-0.6,0.2l-0.4,0.5c-2.8,4.2-3.3,8.8-1.3,12.5c1.8,3.4,5.5,5.4,9.8,5.4c0.9,0,1.8-0.1,2.7-0.2
				c0.2,0,0.5-0.1,9.3-3.6c1,0.2,1.9,0.5,2.7,1.1c-0.9,4.4-1.9,8.8-3.1,12.9c1.9,0.4,3.1-1.6,4.7-2.5c4.9-2.6,12.4-4.5,19.4-4.1
				c6.4,0.4,9.7,3.6,13.8,6.3c0.8,0.6,2.2,1.8,2.8,2.8c0.8,1.1,1.3,2.5,2.5,3.1c0.9-4.5,0.7-10,1.9-14.1c0.6,5.1,0.3,12.2,0.3,17.6
				c0,1.9,0.1,3.6-0.6,5.3c-2-5.4-5.5-10.1-9.4-13.2c-1.4-1.1-2.3-1.8-3.8-2.5c-6.8-3.3-18-2.5-24.1,0.3c-9.2,4.2-13.4,10.2-16.9,20
				c-1.9,5.5-3.4,10.2-2.2,16.9c3.1,3.2,8.3,2.2,13.2,2.2h31c4.6,0,12.4,1.1,15.4-0.3c2.1-1,1.6-3.2,3.1-3.8c1.9-0.7,6.2,0,9.7,0
				c9.8,0,21,0,28.8-0.3c7.4-0.3,16.5,1.3,17.9-4.4c0.2-5.6-0.2-9.7-1.6-13.5C127.2,210.1,125.5,207.7,123,204.9z M34.2,200.5
				c3.6-2,13.1-1.7,17.2-0.3c0.5,2,1.3,3.5,1.6,5.7c-5.3,0-13.3-0.7-19.4,0C33.3,204.6,34.1,202.4,34.2,200.5z M31.5,202.1
				c0.1,1.2-0.5,5.5-0.5,5.5s11-1,13.7-0.4c1.2-0.2,5.1,0,5.5,0c1,0,3.6,0.2,5.7,0.2c-0.2-1.6-0.5-3.6-1.4-6.5
				c3.6,1.2,10.1,10.5,11.3,20.1c-1.5-0.1-6.6-0.3-6.6-0.3s-6.1-8.5-12.1-9.3l-2.7-0.5c-8.2,0-11.5,2.8-13.7,4.8
				c-1.1,1-2.5,2.6-3.7,4.7l-9.2-0.2C18.6,214.3,21.7,206.1,31.5,202.1z M67.1,230c-12.3,0.6-26,0.3-39.2,0.3
				c-4.3,0-8.7,0.5-12.6-0.6c-0.9-2.1,0.3-4.7,0.9-6.3c3.4-0.5,8.9,0.8,12.2-0.3c2.5-0.9,4.3-5,6.6-6.6c2.1-1.4,5.2-2.1,7.2-2.2
				c6.6-0.2,12,4.5,15.7,9.1c2.8,0.1,6.1-0.3,8.5,0.3C67.8,225.3,68,227.9,67.1,230z M112.6,201.2c-4,1-8.2,1.9-11,4.1
				c-2.4-0.7-4.5-1.8-5.6-3.8C98.6,196.8,109.7,196.5,112.6,201.2z M92.2,202c0.4,1.9,9.7,6.3,9.7,6.3c6.1-4.3,13.7-5.6,13.7-5.6
				c0.2-0.4-0.7-1.4-0.8-1.8c1.1,1.2,4.1,2.4,8,8.7c-2.9,0.9-10.1,9.2-10.1,9.2c-2.2-0.3-33.9,0.4-36.5,0.1l-2.2-0.2
				c0.4-5.5,2.7-8.1,2.7-8.1C82.7,205.2,92.2,202,92.2,202z M80.6,160.7c-1.1,0.1-2.4,0.2-3.6,0.2l3.3-7l-14.8-4.5l-4.1,1
				c-0.4-1.4-1.3-2.8-2.7-3.8c-4.9-3.8-15.1-2.8-17.9-7.8V137c8.1-3.3,10.3-12.6,10.4-20.9c6.4,4.2,15.7,7.5,26.9,6.1
				c2.9-0.4,5.5-1,7.9-1.9c0.2,5.4,1.5,12.6,5.4,15.7c0.4,0.3,0.8,0.4,1.1,0.4c0.1,2.1,0.1,4.1,0,6.1
				C88.9,148.8,78.9,150.1,80.6,160.7z M63.1,154c-0.2,0.5-0.4,0.9-0.6,1.4c0.1-0.5,0.2-0.9,0.3-1.3L63.1,154z M62.4,155.5
				C62.4,155.5,62.4,155.5,62.4,155.5C62.4,155.5,62.4,155.5,62.4,155.5C62.4,155.5,62.4,155.5,62.4,155.5z M59.3,97.1
				c5.7-2.8,9.9,1.4,15.1,3.8c6.9,3.2,15.2,4.9,26,4.7c-1.7,3.4-1.7,2.9-3.6,4.5c-3.8,3.1-9.8,7.7-19.6,6.5
				c-5.8-0.7-14.8-6.4-18.5-10c-0.9-0.9-2.7-4.3-1.6-6.6c5.2,2.7,8.2,5.2,13.5,6.6C66.6,103.1,62.4,100.9,59.3,97.1z M126.4,148.8
				c3.3,5.4,5.6,13.2,1.9,20.1c-0.2,0.4-0.6,0.9-0.9,1.4c-1.4,2.3-3.1,4.2-6.9,4.9c-0.1-3,2.1-6.3,1.9-10.3
				c-1.8,1.5-2.1,4.2-3.1,6.3c-1.1,2.1-2.5,3.8-3.8,5.6c-1.9,1.8-4.1,3.6-6.6,3.1c0.9-4.3,2.7-9.4,1.9-14.4c-0.5,1.4-1.2,3-1.6,4.4
				c-1.3,4.4-3.6,8.3-5.9,11.9c-1.7,1.7-3.8,3.5-6.6,3.4c-8.4-0.2-3.4-10.7-1.6-15c1.7-3.9,3.2-7.6,3.8-11c-1.7,1.2-2.8,2.9-4.7,3.8
				c-6.2,0.6-11.1-1.9-10.3-6.6c0.6-4.1,7.3-4.5,9.1-7.8c1.1-2.7,2.5-5,4.1-6.9c0.1-0.1,0.1-0.2,0.2-0.2c2.5-5,15-4.9,16.5-3.1
				C119,140.4,123.8,144.5,126.4,148.8z M106,122.5c1.2,2.2,2.6,4.4,3.6,6.8c-4.1,0-10.8,1.3-14.2,4.4c-0.8-2.2-1.4-4.7-2.5-6.5
				c-0.2,1.3-0.3,2.7-0.4,4.2c-2.1-3.4-2.6-8.9-2.6-12.6c3.7-1.7,7.2-3.8,11-6.2C103.1,115.8,104.2,119.2,106,122.5z M48.9,66.6
				c0.6-6.2,1.2-6.6,4.3-9.1c0,0,0.6-7.6,0.7-9.5c0.2-2.6,1.5-8,2.9-10c0.5-0.7,0.5-0.7,2-1.9c1.7-1.3,4-2.6,6.2-3.4
				c3.8-1.5,8.6-3.1,13-3.4c11.5-0.9,21,3.9,26.4,8.7c0.2,0.2,0.4,0.3,0.5,0.5c3.2,3.8,5.4,8.2,7.2,12.9c0.3,1.4,0.4,2.8,0.5,4.3
				c-8.7,1-11.7,7.8-13.5,15.7c0,0,3.6,2.2,5.7,3.1c1.9,0.9,5.6,3.1,5.6,3.1s-1.9,1.1-2.8,1.6c-2.6,1.4-7.8,5-7.8,5
				c1.5,4.5,4,7.9,7.5,10.4c-0.9,3.5-3,7.2-5.3,7.8c-12.6,3.4-24.4-2.5-32.6-6.6c-2.8-1.4-5.3-3.3-9.7-2.5c-4.6,0.9-7,6.1-5,10.7
				c2.1,4.8,6.2,8.4,10.7,10.7c2,1,6,2.8,6,2.8c-4.6,0.5-9-0.6-12.6-2.2c-10.1-4.7-17.2-13.5-19.1-26c1.9-1.7,2.4-1.5,3.8-2.5
				c2.9-2.3,4.6-6.6,4.8-10.8C48.6,71.1,48.7,71.7,48.9,66.6z M40.2,85.5c2-2.7,4.1-7.1,3.4-11.9c-0.4-3.2-1.7-4.8-3.7-6.7
				c-0.4-0.5-1.5-1.1-1.5-1.5C46.9,66.5,48,83.2,40.2,85.5z M34.2,85.8C24.3,86.1,22.6,67,33.3,66c5.7-0.5,9.3,5.1,8.8,11
				C41.7,81.3,38,85.7,34.2,85.8z M12.9,183.9c-0.7,0.1-1.3,0.2-1.9,0.2c-2.9,0-5.2-1.2-6.4-3.3c-1.2-2.3-0.9-5.3,0.8-8.1
				c0.5-0.2,1.1-0.4,1.7-0.7c1.5,3.7,5.8,8,8.8,9.6c0.3,0.1,0.5,0.2,1.6,0.6C15.3,182.9,13.4,183.7,12.9,183.9z M56.8,179.5
				c-12.2,0.4-17.2-6.4-22.9-12.5c0.9,4.1,3.4,7.2,6,10c0.7,0.8,1.7,1.5,1.9,2.8c-9.7,0-14.4-4.8-19.4-9.4c0.2,3.6,4.1,6,6.3,8.8
				c-11.2,0.5-17.2-6.5-17.9-14.4c-0.1-4.3,1.6-8.4,3.6-13.8l4.8-12c3.3-11.2,6.4-17.3,11.4-24c2.7-3.6,5.2-7.8,8.5-10.7
				c0.2,0.1,1.9,1.8,2,1.9c2.7,3.2,4.1,5,6.4,7c0.2,6.5-0.4,15.8-6.5,19.5c0.1-2.6,0.3-5.2,0.9-7.4c-1.9,1.3-2.6,2.7-3.4,4.7
				c-0.9,2-2,5.3-2.2,6.6c0,0.4-0.1,0.8-0.1,1.2c0.3,1.1,0.6,2.2,0.8,3.4c3.8,1.5,7.3,4.8,11.2,6.1c2.9,0.9,7.1,0.2,8.8,1.9
				c1.3,1.4,1.1,4.9,0.3,6.3c-1.9,3.3-9.5,4.7-13.5,1.9c0.7,1.8,2.5,3.5,4.6,5.2c0.1,0.1,0.3,0.2,0.4,0.3c1.1,0.9,2.3,1.9,3.5,2.9
				C56.4,169.4,64.2,175.5,56.8,179.5z M61.3,168.3c-0.5-0.6-1-1.2-1.4-1.7c-1.3-1.4-3.4-2.9-5.4-4.4c1.3-0.3,2.6-0.8,3.7-1.4
				c0.1,0,0.1-0.1,0.2-0.2c0.1-0.1,0.2-0.1,0.4-0.2c0.2-0.2,0.5-0.3,0.8-0.6c0.1-0.1,0.3-0.2,0.4-0.3c0.4-0.3,0.9-0.7,1.2-1.1
				c0.1-0.1,0.2-0.2,0.3-0.4c0.1-0.1,0.2-0.3,0.2-0.4c0.4-0.8,0.7-1.4,0.8-2c0,0.2,0.3,0.3,0.5,0.4c1.7,0.5,0.9,1.6,1.1,3
				c0.1,0.7,1.5,1.1,2.4,1.3c0.1-0.1,0.1-0.3,0.2-0.4c0.2,0.2,0.3,0.3,0.5,0.5c-0.2,0-0.4-0.1-0.6-0.1c-0.1,0.3-0.2,0.5-0.3,0.8
				c-0.1,0.3-0.2,0.6-0.2,0.9c0,0.6,0.3,1.2,0.9,2c0.5,0.7,0.5,1,1.2,1.5c0.1,0.1,0.2,0.1,0.3,0.2C65.5,166.8,62.7,167.9,61.3,168.3
				z M69.7,163.6c-0.3-0.2-0.5-0.5-0.7-0.8c-0.3-0.5-0.4-1.1-0.4-1.7c0-0.1,0-0.2,0.1-0.3c0-0.1,0-0.2,0.1-0.4
				c0.1-0.2,0.2-0.5,0.3-0.8c0.1-0.3-0.3-0.5-0.5-0.5c-1.8-0.5-1.8-1.5-2.2-3.1c-0.1-0.7-0.8-0.9-1.4-1.1c0,0.1-0.1,0.2-0.1,0.3
				c-0.2-0.2-0.3-0.3-0.5-0.5c0.2,0.1,0.4,0.1,0.6,0.2c0.2-0.5,0.4-0.9,0.6-1.4l6.4,2c0.3,0.9,0.7,1.8,1.4,2.4c0,0,0,0,0,0
				c0.2,0.2,0.3,0.3,0.5,0.5l-1.3,2.8l-1.6,3.5C70.5,164.3,70.1,164,69.7,163.6z M71.2,166.6c0.6-0.3,1-0.4,1.2-0.5
				C72.1,166.4,71.7,166.6,71.2,166.6z M72.5,166.1l0.2-0.5C72.8,165.7,72.7,165.9,72.5,166.1z M125.1,224.4
				c-1.4,1.9-7.9,1.5-12.2,1.6c-9.8,0.2-17.9,0-27.3,0c-4.5,0-8.9,0.2-12.5-1c0.2-1.3-0.2-2.1-0.3-3.1c13.1-0.7,27.5-0.1,41.1-0.3
				c2.6-2.6,5-5.2,7.8-6.9c0.5-0.3,0.6-0.8,1.6-0.6C125.6,214.6,126.7,222.4,125.1,224.4z"/>
			<path fill="#E55499" d="M72.7,165.6l-0.2,0.5C72.7,165.9,72.8,165.7,72.7,165.6z M71.2,166.6c0.4-0.1,0.9-0.3,1.2-0.5
				C72.3,166.2,71.9,166.4,71.2,166.6z"/>
		</g>
	</g>
</g>
</svg>
